<svg id="Layer_1" data-name="Layer 1" xmlns="http://www.w3.org/2000/svg" viewBox="0 0 282.69 76.75"><defs><style>.cls-1{fill:#fff27b;stroke:#323232;stroke-miterlimit:10;stroke-width:0.5px;}</style></defs><path class="cls-1" d="M50.33,59.74c-4.53,0-8.28,2.85-8.28,7,0,4.61,5.66,9.73,10.35,9.73a7.72,7.72,0,0,0,7-4.22l0-.43-4.72-4.14c-1.53,2.66-3.24,3.79-5.08,3.79a2.15,2.15,0,0,1-2.27-2.15c0-2.15,2.43-4.41,6-4.41,3.83,0,9.18,4,15.7,11.13h.47l1.84-2.66C61.85,63.88,56.19,59.74,50.33,59.74Z"/><path class="cls-1" d="M72.28,17.09H.84l-.55.74L3,23.18h8.71a27.77,27.77,0,0,1,.51,5.43,19.59,19.59,0,0,1-.59,5.16,30.9,30.9,0,0,0-3.28-.24,3.82,3.82,0,0,0-4,4.1c0,1.57.89,3.91,2.89,6.92,3.82,5.82,9.45,11.13,16,16.09h.59l2.93-6.52c-6-2.85-10.71-5.82-13.79-9a20.17,20.17,0,0,0,4.41-4.06,22.18,22.18,0,0,0,9.14,2.11A34,34,0,0,0,30.64,43c2.39,3.39,6.18,6.68,11,6.68a10.24,10.24,0,0,0,6.41-2l.07,0-.19,8.79L54,58.22l.55-.39-.08-15.55c3.17-3.67,6.6-6.21,9.42-6.21,1.36,0,1.95.66,1.95,2.11,0,3-2.5,7.34-5.86,11.52l5.82,4.5h.55c3-3.91,4.88-8.44,4.88-12.39a11.64,11.64,0,0,0-3.28-8.08,9.2,9.2,0,0,0-7.19-3.36,11,11,0,0,0-6.25,2.26l-.12-.08V23.18h49.89v4.73a23.75,23.75,0,0,0-9.77,3.51c-3.48-2.65-5.66-4.1-9.26-4.1-5.15,0-9.49,3.71-9.49,10.2,0,8.2,7.42,16.75,15.39,20.89l.51-.19,1.91-6.13C86,49.59,82,46.42,82,41.34c0-4.49,3.28-8,7.11-8a6.33,6.33,0,0,1,2.77.62A15.86,15.86,0,0,0,89,40.68l5.2,3.55h.54c1.57-5.46,3.21-8,9.46-9.72l-.12,21.91,6.21,1.8.55-.39-.16-34.65h6.8l.55-.74-2.66-5.35Zm-43.75,19a20.53,20.53,0,0,1-3.86.27,34.37,34.37,0,0,1-6.29-.62,32.75,32.75,0,0,0,.19-4,44.44,44.44,0,0,0-.82-8.52H48.07v5.74A29.13,29.13,0,0,0,39.2,27.4C33.34,27.4,28.89,30.8,28.53,36.07Zm19.61,3c-3,3.12-6.13,4.61-9.14,4.61-2.61,0-4.18-1-4.18-3.13,0-3.82,3-7.14,9.53-7.14a18.51,18.51,0,0,1,3.79.35Z"/><path class="cls-1" d="M252.44,17.09H177.75a7,7,0,0,1-.62-3c0-4.49,3.28-7.58,8-7.58,5.2,0,10,3.32,14.89,9.06h.51l1.6-2.54C195.37,5.13,188.77.25,182.28.25c-7,0-11.36,5.08-11.36,9.84a10.3,10.3,0,0,0,2.93,7h-43l-.55.74L133,23.18h3.63c-.08,2.11-.12,4.45-.12,7,0,8.36,1.88,11.29,6.57,14.65a13.23,13.23,0,0,0,7.61,2.74A10.13,10.13,0,0,0,156,46l-.15,10.47,6.21,1.8.55-.39-.16-34.65h10.19l-.15,33.2,6.29,1.84.54-.39-.15-34.65H198a12.15,12.15,0,0,1,.31,3c0,2.89-.59,4.65-1.44,5.78-1.22-.12-3-.16-4.85-.16a4,4,0,0,0-3.67,1.64,4.18,4.18,0,0,0-.66,2.19,10.19,10.19,0,0,0,1.48,4c3.71,6.87,10,13.16,17.93,19.1h.59l3-6.64c-6-2.89-11.17-6.06-14.41-9.57,5-2.78,8.51-6.72,8.51-14.54a25.4,25.4,0,0,0-.42-4.8h17a27.77,27.77,0,0,1,.51,5.43,19.59,19.59,0,0,1-.59,5.16,30.9,30.9,0,0,0-3.28-.24,3.82,3.82,0,0,0-4,4.1c0,1.57.9,3.91,2.89,6.92,3.83,5.82,9.46,11.13,16,16.09h.59l2.93-6.52c-6-2.85-10.71-5.82-13.79-9A20.4,20.4,0,0,0,227,41.07a22.14,22.14,0,0,0,9.14,2.11,47.37,47.37,0,0,0,5.24-.27l-.2,13.51,6.21,1.8.55-.39-.16-34.65H266.5a11.66,11.66,0,0,1,.32,3c0,2.89-.59,4.65-1.45,5.78-1.21-.12-3-.16-4.84-.16a4,4,0,0,0-3.68,1.64,4.27,4.27,0,0,0-.66,2.19,10.36,10.36,0,0,0,1.48,4c3.72,6.87,10,13.16,17.93,19.1h.59l3-6.64C273.14,49.2,268,46,264.78,42.52c5-2.78,8.52-6.72,8.52-14.54a25.42,25.42,0,0,0-.43-4.8h9l.55-.74-2.66-5.35ZM156.11,33.84a6.39,6.39,0,0,1-2.42,5.2,10,10,0,0,1-6.05,2.5c-4.07,0-4.3-4-4.3-11.06,0-2.77,0-5.27.12-7.3h12.65Zm85.2,1.76a29,29,0,0,1-7,.74,34.37,34.37,0,0,1-6.29-.62,32.75,32.75,0,0,0,.19-4,44.44,44.44,0,0,0-.82-8.52h13.91Z"/></svg>